<svg width="12" height="16" viewBox="0 0 12 16" fill="none" xmlns="http://www.w3.org/2000/svg">
<path fill-rule="evenodd" clip-rule="evenodd" d="M5.99984 14.6668C5.99984 14.6668 11.3332 10.6668 11.3332 6.66683C11.3332 5.25234 10.7713 3.89579 9.77107 2.89559C8.77088 1.8954 7.41432 1.3335 5.99984 1.3335C4.58535 1.3335 3.2288 1.8954 2.2286 2.89559C1.22841 3.89579 0.666504 5.25234 0.666504 6.66683C0.666504 10.6668 5.99984 14.6668 5.99984 14.6668ZM8.6665 6.66683C8.6665 8.13959 7.4726 9.3335 5.99984 9.3335C4.52708 9.3335 3.33317 8.13959 3.33317 6.66683C3.33317 5.19407 4.52708 4.00016 5.99984 4.00016C7.4726 4.00016 8.6665 5.19407 8.6665 6.66683Z" fill="#8162FF"/>
<path d="M5.99984 14.6668L5.69984 15.0668C5.87761 15.2002 6.12206 15.2002 6.29984 15.0668L5.99984 14.6668ZM9.77107 2.89559L10.1246 2.54204V2.54204L9.77107 2.89559ZM2.2286 2.89559L2.58215 3.24915L2.2286 2.89559ZM10.8332 6.66683C10.8332 8.46932 9.6146 10.3476 8.2928 11.8346C7.64363 12.565 6.9929 13.1752 6.50392 13.603C6.25978 13.8167 6.05686 13.984 5.91581 14.0974C5.8453 14.154 5.79032 14.1971 5.75345 14.2257C5.73501 14.24 5.72111 14.2507 5.71207 14.2576C5.70754 14.261 5.70424 14.2635 5.70219 14.2651C5.70116 14.2658 5.70045 14.2664 5.70005 14.2667C5.69986 14.2668 5.69974 14.2669 5.6997 14.2669C5.69969 14.2669 5.69972 14.2669 5.69971 14.2669C5.69976 14.2669 5.69984 14.2668 5.99984 14.6668C6.29984 15.0668 6.29995 15.0667 6.30009 15.0666C6.30016 15.0666 6.30031 15.0665 6.30046 15.0664C6.30074 15.0661 6.30111 15.0659 6.30156 15.0655C6.30246 15.0649 6.30368 15.0639 6.30522 15.0628C6.30829 15.0604 6.31264 15.0572 6.31821 15.0529C6.32934 15.0444 6.34539 15.0321 6.36602 15.0161C6.40727 14.9842 6.46687 14.9374 6.5422 14.8769C6.69281 14.7559 6.90656 14.5795 7.16242 14.3556C7.67344 13.9085 8.35605 13.2687 9.04021 12.499C10.3851 10.986 11.8332 8.86434 11.8332 6.66683H10.8332ZM9.41752 3.24915C10.3239 4.15557 10.8332 5.38495 10.8332 6.66683H11.8332C11.8332 5.11973 11.2186 3.636 10.1246 2.54204L9.41752 3.24915ZM5.99984 1.8335C7.28172 1.8335 8.51109 2.34272 9.41752 3.24915L10.1246 2.54204C9.03066 1.44808 7.54693 0.833496 5.99984 0.833496V1.8335ZM2.58215 3.24915C3.48858 2.34272 4.71796 1.8335 5.99984 1.8335V0.833496C4.45274 0.833496 2.96901 1.44808 1.87505 2.54204L2.58215 3.24915ZM1.1665 6.66683C1.1665 5.38495 1.67573 4.15557 2.58215 3.24915L1.87505 2.54204C0.781086 3.636 0.166504 5.11973 0.166504 6.66683H1.1665ZM5.99984 14.6668C6.29984 14.2668 6.29991 14.2669 6.29996 14.2669C6.29995 14.2669 6.29999 14.2669 6.29997 14.2669C6.29993 14.2669 6.29982 14.2668 6.29962 14.2667C6.29923 14.2664 6.29851 14.2658 6.29749 14.2651C6.29544 14.2635 6.29213 14.261 6.28761 14.2576C6.27856 14.2507 6.26466 14.24 6.24623 14.2257C6.20935 14.1971 6.15437 14.154 6.08387 14.0974C5.94281 13.984 5.73989 13.8167 5.49576 13.603C5.00677 13.1752 4.35605 12.565 3.70688 11.8346C2.38507 10.3476 1.1665 8.46932 1.1665 6.66683H0.166504C0.166504 8.86434 1.6146 10.986 2.95947 12.499C3.64363 13.2687 4.32623 13.9085 4.83725 14.3556C5.09312 14.5795 5.30686 14.7559 5.45747 14.8769C5.5328 14.9374 5.5924 14.9842 5.63366 15.0161C5.65428 15.0321 5.67033 15.0444 5.68147 15.0529C5.68704 15.0572 5.69138 15.0604 5.69445 15.0628C5.69599 15.0639 5.69721 15.0649 5.69811 15.0655C5.69856 15.0659 5.69893 15.0661 5.69922 15.0664C5.69936 15.0665 5.69952 15.0666 5.69959 15.0666C5.69972 15.0667 5.69984 15.0668 5.99984 14.6668ZM5.99984 9.8335C7.74874 9.8335 9.1665 8.41573 9.1665 6.66683H8.1665C8.1665 7.86345 7.19645 8.8335 5.99984 8.8335V9.8335ZM2.83317 6.66683C2.83317 8.41573 4.25094 9.8335 5.99984 9.8335V8.8335C4.80322 8.8335 3.83317 7.86345 3.83317 6.66683H2.83317ZM5.99984 3.50016C4.25094 3.50016 2.83317 4.91793 2.83317 6.66683H3.83317C3.83317 5.47021 4.80322 4.50016 5.99984 4.50016V3.50016ZM9.1665 6.66683C9.1665 4.91793 7.74874 3.50016 5.99984 3.50016V4.50016C7.19645 4.50016 8.1665 5.47021 8.1665 6.66683H9.1665Z" fill="#8162FF"/>
</svg>
